<svg width="899" height="339" viewBox="0 0 899 339" fill="none" xmlns="http://www.w3.org/2000/svg">
<path d="M211.092 220.26C208.169 219.675 204.27 223.768 204.27 220.844C204.66 213.437 209.338 214.802 212.457 207.98C215.771 201.352 214.991 200.962 218.305 194.335C221.618 187.708 219.474 186.538 222.788 179.911C224.737 176.013 226.101 172.504 223.372 168.995C221.228 166.267 216.94 165.292 212.652 163.343C209.338 161.783 206.025 158.47 201.541 157.69C196.668 156.91 191.6 158.665 186.922 159.054C181.659 159.444 176.786 159.834 172.693 161.393C167.625 163.538 164.506 167.046 162.557 170.75C159.244 177.377 159.049 177.377 155.735 184.004C152.421 190.632 153.591 191.216 150.277 197.844C146.964 204.471 149.108 207.98 142.675 211.488C136.438 214.802 134.684 210.903 127.666 209.734C120.649 208.564 121.234 205.056 114.022 203.886C107.005 202.717 106.81 203.691 99.7927 202.327C92.7756 201.157 91.4112 205.056 84.9788 201.937C88.6823 199.208 92.1908 194.53 95.6994 191.996C99.4029 189.267 104.666 188.877 108.174 186.343C111.878 183.809 114.022 178.741 117.531 176.207C121.234 173.673 126.107 172.504 129.616 169.97C133.319 167.436 137.607 165.682 141.311 163.148C145.014 160.614 146.964 155.546 150.667 153.012C154.371 150.478 159.049 149.308 162.752 146.774C166.456 144.24 170.744 142.486 174.447 139.757C178.151 137.223 180.1 132.35 183.804 129.621C187.507 127.087 191.211 124.553 194.914 121.825C198.618 119.291 202.711 117.341 206.414 114.612C209.338 112.468 211.677 111.884 212.457 110.324C214.406 106.621 211.872 102.917 208.948 99.4087C206.804 96.6798 203.686 94.9255 199.592 92.9763C196.279 91.222 193.355 86.7388 189.066 85.9592C183.414 84.9845 177.371 87.7134 171.718 88.4931C165.481 89.4677 159.244 89.8576 155.15 92.7814C149.692 96.6798 150.277 97.6544 144.819 101.553C139.362 105.451 138.777 104.866 133.319 108.765C127.861 112.663 127.666 112.468 122.014 116.367C116.556 120.265 117.336 121.63 111.878 125.528C106.42 129.426 104.666 126.893 99.0131 130.791C93.5553 134.689 93.5553 134.884 88.0975 138.783C82.6397 142.681 84.394 145.41 78.9362 149.308C73.4785 153.207 73.0886 152.817 67.6308 156.91C62.173 160.809 61.3934 159.639 55.7407 163.538C50.2829 167.436 50.8676 168.411 45.2149 172.309C39.7572 176.207 38.9775 175.233 33.3248 179.131C27.6721 183.03 28.8416 184.784 23.3838 188.682C17.7311 192.581 17.1463 191.606 11.4936 195.505C7.01047 198.428 1.55269 201.937 0.967927 203.107C-0.981281 207.2 0.188244 212.268 2.91713 216.166C5.06126 219.09 8.56984 222.209 13.053 224.158C16.5616 225.717 21.0448 225.717 25.7229 226.497C32.9349 227.667 32.5451 229.421 39.5622 230.59C46.7743 231.76 46.9692 230.201 53.9864 231.37C61.1984 232.54 60.8086 233.709 68.0207 235.074C75.2327 236.243 75.0378 236.438 82.2499 237.607C89.4619 238.777 89.267 239.167 96.4791 240.336C103.691 241.506 103.886 240.336 110.903 241.506C118.115 242.675 122.209 236.828 126.302 242.87C129.616 247.743 122.404 248.913 119.675 254.176C116.946 259.634 117.92 260.023 115.386 265.481C113.437 269.38 112.268 274.058 114.997 277.371C117.141 280.1 122.209 280.1 126.692 282.049C130.005 283.414 133.514 284.973 137.997 285.753C142.87 286.533 147.548 286.338 152.032 285.948C157.294 285.558 161.972 285.558 165.871 283.804C170.939 281.66 176.202 279.71 178.151 276.007C180.88 270.549 181.465 270.939 184.193 265.676C186.922 260.218 184.193 259.049 188.677 255.15C191.016 253.201 191.016 253.201 193.939 253.591C198.812 254.371 203.491 257.1 207.974 256.71C213.042 256.32 217.135 253.006 221.228 251.252C226.296 249.108 228.83 246.379 230.779 242.675C232.534 238.972 232.339 236.828 229.61 233.319C227.466 230.59 225.906 226.497 221.618 224.743C219.474 222.794 215.576 220.844 211.092 220.26Z" fill="#1D5B96"/>
<path d="M898.188 221.819C896.629 218.115 893.12 214.412 887.663 212.268C883.569 210.708 878.501 210.708 873.044 210.318C868.365 209.928 863.492 209.734 858.424 210.513C855.111 211.098 853.746 213.632 851.407 211.293C846.145 205.835 850.433 203.301 847.509 196.284C844.585 189.267 843.026 189.852 840.102 182.834C837.178 175.817 838.153 175.428 835.229 168.41C833.475 164.317 828.407 161.393 822.754 159.249C818.466 157.495 813.203 158.469 807.745 158.08C802.872 157.69 797.999 157.3 792.931 158.08C788.058 158.859 783.965 159.639 780.066 161.003C775.193 162.953 771.1 164.707 768.566 167.436C765.057 171.139 764.668 174.843 766.617 179.131C769.541 186.148 769.736 186.148 772.659 193.165C775.583 200.182 773.634 200.962 776.558 207.979C779.482 214.996 788.448 215.776 784.55 222.208C780.651 229.031 775.778 224.353 768.176 225.717C760.379 226.887 760.379 227.082 752.583 228.251C744.786 229.421 744.591 228.446 736.794 229.615C728.997 230.785 728.997 231.76 721.2 230.785C722.565 226.497 723.344 222.598 724.709 218.31C726.073 214.022 727.828 209.734 729.192 205.64C730.556 201.352 730.751 196.674 732.116 192.386C733.48 188.097 736.989 184.589 738.353 180.301C739.718 176.012 739.133 171.139 740.497 166.851C741.862 162.563 743.421 158.469 744.981 154.181C746.345 149.893 750.049 146.384 751.608 142.096C752.972 137.808 755.117 133.909 756.676 129.426C758.04 125.138 756.871 120.07 758.235 115.782C759.21 113.053 759.015 111.494 758.235 109.934C756.676 106.036 753.167 101.358 747.515 99.2135C743.226 97.4592 737.379 98.8237 731.921 98.2389C726.853 97.6541 721.59 96.2897 716.717 97.0694C711.064 98.044 705.217 98.6287 700.929 100.773C695.276 103.697 692.547 109.154 691.377 113.248C689.233 120.07 689.233 120.07 687.089 127.087C684.945 133.909 685.335 134.104 683.191 140.927C681.047 147.749 679.877 147.359 677.538 154.181C675.394 161.003 673.25 160.419 670.911 167.241C668.767 174.063 670.911 174.843 668.767 181.665C666.622 188.487 667.597 188.877 665.453 195.699C663.309 202.521 660.97 201.742 658.826 208.759C656.682 215.581 659.021 216.361 656.682 223.183C654.537 230.005 652.003 229.226 649.859 236.048C647.715 242.87 646.741 242.48 644.402 249.497C642.842 253.591 644.596 259.243 645.181 260.413C646.935 264.506 651.224 267.625 657.071 270.159C661.36 271.913 666.428 275.422 672.275 275.812C677.148 276.202 682.996 275.422 688.454 274.642C695.276 273.473 695.081 272.498 701.903 271.329C708.725 270.159 708.725 270.549 715.548 269.379C722.37 268.21 722.37 268.405 729.192 267.43C736.014 266.261 735.624 263.922 742.447 262.947C749.269 261.777 749.464 263.142 756.286 261.972C763.108 260.803 762.913 260.023 769.736 258.854C776.558 257.684 776.753 258.269 783.575 257.294C790.397 256.125 791.177 252.811 797.414 255.93C802.872 258.659 798.389 262.362 800.728 267.82C803.067 273.473 803.067 273.473 805.406 279.125C807.16 283.219 812.033 287.312 817.686 289.456C821.974 291.21 827.627 290.041 833.28 290.431C838.153 290.626 843.416 292.185 848.678 291.405C853.551 290.626 857.84 288.676 861.543 287.117C866.416 285.168 868.56 281.075 871.289 278.346C874.798 274.642 877.917 271.523 876.162 267.235C873.823 261.582 872.264 262.167 869.925 256.515C867.586 250.862 866.611 251.057 867.586 245.014C867.976 241.701 869.34 243.65 872.654 243.065C877.332 242.285 881.815 241.896 885.324 240.336C890.002 238.387 892.925 235.268 895.459 232.539C898.773 229.226 899.943 225.912 898.188 221.819Z" fill="#1D5B96"/>
<path d="M647.52 132.74H643.816V134.299H647.52V132.74Z" fill="#1D5B96"/>
<path d="M646.936 124.554H643.232V126.113H646.936V124.554Z" fill="#1D5B96"/>
<path d="M641.284 120.851H637.58V122.41H641.284V120.851Z" fill="#1D5B96"/>
<path d="M630.758 123.189H626.859V124.943H630.758V123.189Z" fill="#1D5B96"/>
<path d="M630.758 113.443H626.859V115.197H630.758V113.443Z" fill="#1D5B96"/>
<path d="M628.809 106.816H624.91V108.57H628.809V106.816Z" fill="#1D5B96"/>
<path d="M621.402 107.4H617.309V109.154H621.402V107.4Z" fill="#1D5B96"/>
<path d="M616.919 100.968H613.41V102.528H616.919V100.968Z" fill="#1D5B96"/>
<path d="M606.782 103.501H602.104V105.646H606.782V103.501Z" fill="#1D5B96"/>
<path d="M600.154 104.476H596.061V106.231H600.154V104.476Z" fill="#1D5B96"/>
<path d="M595.477 103.308H591.969V104.867H595.477V103.308Z" fill="#1D5B96"/>
<path d="M590.214 101.358H586.9V102.723H590.214V101.358Z" fill="#1D5B96"/>
<path d="M587.875 91.2222H584.756V92.5866H587.875V91.2222Z" fill="#1D5B96"/>
<path d="M583.976 84.3997H580.857V85.7641H583.976V84.3997Z" fill="#1D5B96"/>
<path d="M577.933 81.866H573.645V83.8152H577.933V81.866Z" fill="#1D5B96"/>
<path d="M571.111 83.6206H567.213V85.3749H571.111V83.6206Z" fill="#1D5B96"/>
<path d="M563.9 82.4504H560.002V84.2047H563.9V82.4504Z" fill="#1D5B96"/>
<path d="M558.442 78.9424H554.934V80.5018H558.442V78.9424Z" fill="#1D5B96"/>
<path d="M550.645 84.79H546.162V86.7392H550.645V84.79Z" fill="#1D5B96"/>
<path d="M547.917 69.0012H544.408V70.5606H547.917V69.0012Z" fill="#1D5B96"/>
<path d="M537.974 78.9424H533.881V80.6967H537.974V78.9424Z" fill="#1D5B96"/>
<path d="M534.857 73.6794H530.764V75.4337H534.857V73.6794Z" fill="#1D5B96"/>
<path d="M528.618 73.0947H524.33V74.849H528.618V73.0947Z" fill="#1D5B96"/>
<path d="M523.162 72.8997H520.043V74.2641H523.162V72.8997Z" fill="#1D5B96"/>
<path d="M520.433 65.4922H517.119V66.8566H520.433V65.4922Z" fill="#1D5B96"/>
<path d="M512.83 69.5857H508.152V71.5349H512.83V69.5857Z" fill="#1D5B96"/>
<path d="M508.347 62.374H504.254V64.1283H508.347V62.374Z" fill="#1D5B96"/>
<path d="M502.89 71.7302H498.797V73.4845H502.89V71.7302Z" fill="#1D5B96"/>
<path d="M496.457 64.7126H492.559V66.4669H496.457V64.7126Z" fill="#1D5B96"/>
<path d="M488.855 69.5857H484.762V71.34H488.855V69.5857Z" fill="#1D5B96"/>
<path d="M486.126 56.136H481.643V58.0852H486.126V56.136Z" fill="#1D5B96"/>
<path d="M478.719 59.0601H474.82V60.8144H478.719V59.0601Z" fill="#1D5B96"/>
<path d="M473.456 61.3997H470.143V62.959H473.456V61.3997Z" fill="#1D5B96"/>
<path d="M467.803 69.9756H463.125V71.9248H467.803V69.9756Z" fill="#1D5B96"/>
<path d="M462.735 64.1279H459.227V65.6873H462.735V64.1279Z" fill="#1D5B96"/>
<path d="M457.277 65.2981H453.184V67.0524H457.277V65.2981Z" fill="#1D5B96"/>
<path d="M452.405 71.3398H449.092V72.7043H452.405V71.3398Z" fill="#1D5B96"/>
<path d="M446.363 58.865H442.465V60.6193H446.363V58.865Z" fill="#1D5B96"/>
<path d="M440.709 69.1965H437.006V70.7559H440.709V69.1965Z" fill="#1D5B96"/>
<path d="M433.498 68.0264H429.404V69.7806H433.498V68.0264Z" fill="#1D5B96"/>
<path d="M427.454 71.9253H423.166V73.8745H427.454V71.9253Z" fill="#1D5B96"/>
<path d="M419.658 66.8569H416.539V68.2214H419.658V66.8569Z" fill="#1D5B96"/>
<path d="M415.565 66.4666H411.861V68.0259H415.565V66.4666Z" fill="#1D5B96"/>
<path d="M409.327 62.5681H405.818V64.1275H409.327V62.5681Z" fill="#1D5B96"/>
<path d="M404.65 64.7126H400.361V66.6619H404.65V64.7126Z" fill="#1D5B96"/>
<path d="M400.751 74.4585H396.463V76.2128H400.751V74.4585Z" fill="#1D5B96"/>
<path d="M393.343 61.0093H389.055V62.7636H393.343V61.0093Z" fill="#1D5B96"/>
<path d="M389.056 72.5093H384.768V74.4585H389.056V72.5093Z" fill="#1D5B96"/>
<path d="M381.258 63.3489H377.555V64.9082H381.258V63.3489Z" fill="#1D5B96"/>
<path d="M378.335 74.4585H374.826V76.0178H378.335V74.4585Z" fill="#1D5B96"/>
<path d="M372.683 79.5269H369.369V80.8913H372.683V79.5269Z" fill="#1D5B96"/>
<path d="M366.446 78.3569H362.742V79.9163H366.446V78.3569Z" fill="#1D5B96"/>
<path d="M362.936 82.4504H359.232V84.0098H362.936V82.4504Z" fill="#1D5B96"/>
<path d="M354.944 76.603H350.461V78.5522H354.944V76.603Z" fill="#1D5B96"/>
<path d="M345.783 78.7473H341.885V80.5016H345.783V78.7473Z" fill="#1D5B96"/>
<path d="M339.352 76.7981H335.453V78.5524H339.352V76.7981Z" fill="#1D5B96"/>
<path d="M339.155 88.8826H334.867V90.6368H339.155V88.8826Z" fill="#1D5B96"/>
<path d="M331.943 92.0015H328.045V93.7557H331.943V92.0015Z" fill="#1D5B96"/>
<path d="M325.317 89.6633H320.834V91.6125H325.317V89.6633Z" fill="#1D5B96"/>
<path d="M321.807 96.8748H318.104V98.4341H321.807V96.8748Z" fill="#1D5B96"/>
<path d="M314.985 98.6287H311.477V100.188H314.985V98.6287Z" fill="#1D5B96"/>
<path d="M312.451 102.722H308.553V104.476H312.451V102.722Z" fill="#1D5B96"/>
<path d="M305.629 100.968H301.73V102.723H305.629V100.968Z" fill="#1D5B96"/>
<path d="M298.418 102.138H295.299V103.502H298.418V102.138Z" fill="#1D5B96"/>
<path d="M292.18 102.527H288.477V104.086H292.18V102.527Z" fill="#1D5B96"/>
<path d="M287.502 105.451H283.604V107.205H287.502V105.451Z" fill="#1D5B96"/>
<path d="M287.112 116.367H283.604V117.926H287.112V116.367Z" fill="#1D5B96"/>
<path d="M279.706 110.519H275.223V112.468H279.706V110.519Z" fill="#1D5B96"/>
<path d="M274.637 117.146H270.934V118.706H274.637V117.146Z" fill="#1D5B96"/>
<path d="M267.229 117.927H262.746V119.876H267.229V117.927Z" fill="#1D5B96"/>
<path d="M264.111 122.604H260.018V124.359H264.111V122.604Z" fill="#1D5B96"/>
<path d="M258.264 120.265H253.586V122.214H258.264V120.265Z" fill="#1D5B96"/>
<path d="M254.56 127.477H251.246V128.842H254.56V127.477Z" fill="#1D5B96"/>
<path d="M244.229 123.579H240.721V125.138H244.229V123.579Z" fill="#1D5B96"/>
<path d="M241.11 132.351H237.602V133.91H241.11V132.351Z" fill="#1D5B96"/>
<path d="M242.475 141.511H238.967V143.071H242.475V141.511Z" fill="#1D5B96"/>
<path d="M236.822 140.537H232.924V142.291H236.822V140.537Z" fill="#1D5B96"/>
<path d="M232.534 145.02H228.051V146.969H232.534V145.02Z" fill="#1D5B96"/>
<path d="M228.246 153.206H224.348V154.961H228.246V153.206Z" fill="#1D5B96"/>
<path d="M220.838 155.156H216.16V157.105H220.838V155.156Z" fill="#1D5B96"/>
<path d="M217.33 160.029H214.211V161.393H217.33V160.029Z" fill="#1D5B96"/>
<path d="M207.584 167.436H203.881V168.996H207.584V167.436Z" fill="#1D5B96"/>
<path d="M211.678 174.647H207.195V176.597H211.678V174.647Z" fill="#1D5B96"/>
<path d="M208.169 179.52H204.66V181.08H208.169V179.52Z" fill="#1D5B96"/>
<path d="M218.501 185.174H214.018V187.123H218.501V185.174Z" fill="#1D5B96"/>
<path d="M212.457 194.14H208.754V195.699H212.457V194.14Z" fill="#1D5B96"/>
<path d="M209.338 199.987H205.439V201.742H209.338V199.987Z" fill="#1D5B96"/>
<path d="M209.729 205.641H205.246V207.59H209.729V205.641Z" fill="#1D5B96"/>
<path d="M208.17 216.361H204.271V218.116H208.17V216.361Z" fill="#1D5B96"/>
<path d="M215.772 218.311H211.094V220.455H215.772V218.311Z" fill="#1D5B96"/>
<path d="M215.771 222.793H212.652V224.158H215.771V222.793Z" fill="#1D5B96"/>
<path d="M214.602 227.276H209.924V229.42H214.602V227.276Z" fill="#1D5B96"/>
<path d="M219.67 235.658H215.771V237.413H219.67V235.658Z" fill="#1D5B96"/>
<path d="M221.034 239.752H216.551V241.701H221.034V239.752Z" fill="#1D5B96"/>
<path d="M223.178 246.184H218.5V248.133H223.178V246.184Z" fill="#1D5B96"/>
<path d="M228.247 249.108H223.764V251.057H228.247V249.108Z" fill="#1D5B96"/>
<path d="M239.162 249.498H235.459V251.057H239.162V249.498Z" fill="#1D5B96"/>
<path d="M243.84 254.176H240.137V255.735H243.84V254.176Z" fill="#1D5B96"/>
<path d="M244.424 259.633H239.746V261.777H244.424V259.633Z" fill="#1D5B96"/>
<path d="M251.831 262.362H248.322V263.921H251.831V262.362Z" fill="#1D5B96"/>
<path d="M257.289 265.092H253.195V266.846H257.289V265.092Z" fill="#1D5B96"/>
<path d="M254.364 275.032H250.076V276.981H254.364V275.032Z" fill="#1D5B96"/>
<path d="M261.771 275.227H257.873V276.981H261.771V275.227Z" fill="#1D5B96"/>
<path d="M268.594 276.396H264.695V278.151H268.594V276.396Z" fill="#1D5B96"/>
<path d="M270.349 281.27H266.256V283.024H270.349V281.27Z" fill="#1D5B96"/>
<path d="M271.712 290.431H268.594V291.796H271.712V290.431Z" fill="#1D5B96"/>
<path d="M276.587 295.888H272.299V297.838H276.587V295.888Z" fill="#1D5B96"/>
<path d="M285.162 293.745H281.459V295.304H285.162V293.745Z" fill="#1D5B96"/>
<path d="M287.501 298.617H283.213V300.566H287.501V298.617Z" fill="#1D5B96"/>
<path d="M289.451 307.194H285.553V308.948H289.451V307.194Z" fill="#1D5B96"/>
<path d="M299.782 300.566H296.273V302.126H299.782V300.566Z" fill="#1D5B96"/>
<path d="M301.34 311.287H297.637V312.847H301.34V311.287Z" fill="#1D5B96"/>
<path d="M309.918 312.067H305.824V313.821H309.918V312.067Z" fill="#1D5B96"/>
<path d="M316.35 308.558H312.646V310.118H316.35V308.558Z" fill="#1D5B96"/>
<path d="M319.859 313.626H315.961V315.381H319.859V313.626Z" fill="#1D5B96"/>
<path d="M326.29 308.168H322.977V309.533H326.29V308.168Z" fill="#1D5B96"/>
<path d="M331.165 308.363H327.656V309.923H331.165V308.363Z" fill="#1D5B96"/>
<path d="M336.037 316.55H331.943V318.305H336.037V316.55Z" fill="#1D5B96"/>
<path d="M339.935 322.982H335.646V324.932H339.935V322.982Z" fill="#1D5B96"/>
<path d="M345.589 327.271H342.08V328.83H345.589V327.271Z" fill="#1D5B96"/>
<path d="M352.8 328.441H349.291V330H352.8V328.441Z" fill="#1D5B96"/>
<path d="M358.843 323.957H355.334V325.516H358.843V323.957Z" fill="#1D5B96"/>
<path d="M367.614 317.33H363.326V319.279H367.614V317.33Z" fill="#1D5B96"/>
<path d="M374.241 321.424H369.953V323.373H374.241V321.424Z" fill="#1D5B96"/>
<path d="M378.335 334.093H374.047V336.042H378.335V334.093Z" fill="#1D5B96"/>
<path d="M387.106 323.372H382.623V325.322H387.106V323.372Z" fill="#1D5B96"/>
<path d="M392.175 328.441H387.887V330.39H392.175V328.441Z" fill="#1D5B96"/>
<path d="M400.555 326.101H396.072V328.051H400.555V326.101Z" fill="#1D5B96"/>
<path d="M406.014 327.271H402.311V328.83H406.014V327.271Z" fill="#1D5B96"/>
<path d="M411.277 325.711H408.158V327.075H411.277V325.711Z" fill="#1D5B96"/>
<path d="M419.073 332.729H414.395V334.678H419.073V332.729Z" fill="#1D5B96"/>
<path d="M423.946 331.364H420.633V332.924H423.946V331.364Z" fill="#1D5B96"/>
<path d="M429.21 333.703H425.701V335.262H429.21V333.703Z" fill="#1D5B96"/>
<path d="M436.421 333.119H433.107V334.678H436.421V333.119Z" fill="#1D5B96"/>
<path d="M443.243 329.609H439.93V331.169H443.243V329.609Z" fill="#1D5B96"/>
<path d="M449.48 335.068H445.582V336.822H449.48V335.068Z" fill="#1D5B96"/>
<path d="M455.524 326.296H451.82V327.856H455.524V326.296Z" fill="#1D5B96"/>
<path d="M462.345 326.101H458.057V327.856H462.345V326.101Z" fill="#1D5B96"/>
<path d="M467.804 333.313H464.49V334.873H467.804V333.313Z" fill="#1D5B96"/>
<path d="M474.041 333.703H469.363V335.652H474.041V333.703Z" fill="#1D5B96"/>
<path d="M477.745 325.711H473.262V327.66H477.745V325.711Z" fill="#1D5B96"/>
<path d="M482.618 327.66H478.914V329.219H482.618V327.66Z" fill="#1D5B96"/>
<path d="M488.466 326.881H484.178V328.635H488.466V326.881Z" fill="#1D5B96"/>
<path d="M494.507 331.949H490.219V333.898H494.507V331.949Z" fill="#1D5B96"/>
<path d="M500.161 337.601H496.848V338.966H500.161V337.601Z" fill="#1D5B96"/>
<path d="M506.397 336.238H501.914V338.187H506.397V336.238Z" fill="#1D5B96"/>
<path d="M512.83 334.678H509.127V336.237H512.83V334.678Z" fill="#1D5B96"/>
<path d="M520.237 334.093H515.949V336.042H520.237V334.093Z" fill="#1D5B96"/>
<path d="M526.67 334.093H522.576V335.848H526.67V334.093Z" fill="#1D5B96"/>
<path d="M530.958 333.898H527.449V335.457H530.958V333.898Z" fill="#1D5B96"/>
<path d="M537.584 323.762H532.906V325.711H537.584V323.762Z" fill="#1D5B96"/>
<path d="M544.018 329.415H539.535V331.364H544.018V329.415Z" fill="#1D5B96"/>
<path d="M548.11 318.304H543.627V320.254H548.11V318.304Z" fill="#1D5B96"/>
<path d="M554.153 317.72H549.475V319.669H554.153V317.72Z" fill="#1D5B96"/>
<path d="M559.221 324.152H555.713V325.711H559.221V324.152Z" fill="#1D5B96"/>
<path d="M567.214 328.051H563.9V329.61H567.214V328.051Z" fill="#1D5B96"/>
<path d="M575.01 319.279H571.111V321.034H575.01V319.279Z" fill="#1D5B96"/>
<path d="M581.638 320.644H578.324V322.009H581.638V320.644Z" fill="#1D5B96"/>
<path d="M588.655 318.304H584.172V320.254H588.655V318.304Z" fill="#1D5B96"/>
<path d="M593.332 316.55H589.434V318.305H593.332V316.55Z" fill="#1D5B96"/>
<path d="M597.23 308.558H593.332V310.313H597.23V308.558Z" fill="#1D5B96"/>
<path d="M598.79 303.101H594.502V305.05H598.79V303.101Z" fill="#1D5B96"/>
<path d="M610.486 310.117H607.172V311.482H610.486V310.117Z" fill="#1D5B96"/>
<path d="M608.341 297.838H604.053V299.787H608.341V297.838Z" fill="#1D5B96"/>
<path d="M617.502 302.321H612.824V304.465H617.502V302.321Z" fill="#1D5B96"/>
<path d="M621.012 297.838H617.309V299.397H621.012V297.838Z" fill="#1D5B96"/>
<path d="M627.832 294.134H623.154V296.083H627.832V294.134Z" fill="#1D5B96"/>
<path d="M628.612 289.261H625.104V290.821H628.612V289.261Z" fill="#1D5B96"/>
<path d="M632.511 287.117H629.393V288.482H632.511V287.117Z" fill="#1D5B96"/>
<path d="M632.316 280.685H628.418V282.439H632.316V280.685Z" fill="#1D5B96"/>
<path d="M644.792 283.998H640.309V285.947H644.792V283.998Z" fill="#1D5B96"/>
<path d="M644.596 277.371H639.918V279.515H644.596V277.371Z" fill="#1D5B96"/>
<path d="M648.106 270.158H643.428V272.108H648.106V270.158Z" fill="#1D5B96"/>
<path d="M648.106 262.947H644.402V264.506H648.106V262.947Z" fill="#1D5B96"/>
<path d="M661.36 263.727H657.852V265.286H661.36V263.727Z" fill="#1D5B96"/>
<path d="M664.868 259.244H660.58V260.998H664.868V259.244Z" fill="#1D5B96"/>
<path d="M663.114 249.108H659.605V250.667H663.114V249.108Z" fill="#1D5B96"/>
<path d="M668.571 245.014H664.088V246.963H668.571V245.014Z" fill="#1D5B96"/>
<path d="M675.005 242.286H670.717V244.235H675.005V242.286Z" fill="#1D5B96"/>
<path d="M665.647 230.785H661.164V232.734H665.647V230.785Z" fill="#1D5B96"/>
<path d="M671.106 224.158H666.623V226.107H671.106V224.158Z" fill="#1D5B96"/>
<path d="M678.513 221.234H675.199V222.599H678.513V221.234Z" fill="#1D5B96"/>
<path d="M682.022 216.166H678.318V217.726H682.022V216.166Z" fill="#1D5B96"/>
<path d="M670.132 206.225H666.818V207.784H670.132V206.225Z" fill="#1D5B96"/>
<path d="M671.886 200.377H667.598V202.327H671.886V200.377Z" fill="#1D5B96"/>
<path d="M682.996 193.165H678.318V195.114H682.996V193.165Z" fill="#1D5B96"/>
<path d="M672.08 188.682H668.182V190.437H672.08V188.682Z" fill="#1D5B96"/>
<path d="M678.513 179.131H674.225V181.081H678.513V179.131Z" fill="#1D5B96"/>
<path d="M674.42 173.868H670.326V175.623H674.42V173.868Z" fill="#1D5B96"/>
<path d="M669.742 170.165H666.623V171.529H669.742V170.165Z" fill="#1D5B96"/>
<path d="M668.766 163.538H665.062V165.097H668.766V163.538Z" fill="#1D5B96"/>
<path d="M666.233 158.47H661.75V160.419H666.233V158.47Z" fill="#1D5B96"/>
<path d="M656.486 155.936H652.588V157.69H656.486V155.936Z" fill="#1D5B96"/>
<path d="M662.334 144.046H658.631V145.605H662.334V144.046Z" fill="#1D5B96"/>
<path d="M654.343 142.876H649.859V144.825H654.343V142.876Z" fill="#1D5B96"/>
<path d="M650.445 138.783H647.131V140.342H650.445V138.783Z" fill="#1D5B96"/>
<path d="M435.447 311.678C412.056 311.678 354.165 309.534 318.884 289.457C318.494 289.262 317.909 288.872 317.519 288.677C315.96 287.703 314.206 286.728 312.841 285.558C305.434 280.685 300.366 275.618 297.053 269.965C296.663 269.77 296.078 269.38 294.909 268.795C294.129 268.405 293.544 268.016 292.765 267.626H292.57C291.79 267.236 291.01 266.651 290.231 266.261C286.332 264.117 281.849 261.193 278.73 256.905L277.951 255.736L277.366 254.566C276.391 252.617 275.806 250.863 275.417 249.498V249.303C275.417 249.108 275.222 248.718 275.222 248.524V248.329L275.027 247.939C274.832 247.939 274.637 247.744 274.247 247.549L272.883 247.159L271.713 246.379C267.815 244.235 265.865 241.117 264.696 238.583C258.848 233.515 257.289 227.862 256.704 223.769C256.119 223.574 255.73 223.184 255.145 222.989C254.56 222.599 254.17 222.404 253.585 222.014C247.543 218.311 243.839 213.633 242.865 207.98C241.89 203.302 243.06 198.624 245.789 194.725C246.373 193.946 246.373 193.361 246.568 190.242C246.763 187.903 246.958 184.979 247.738 181.471C247.738 181.276 247.738 181.081 247.543 180.886C246.568 177.183 245.009 170.945 247.738 164.513L247.933 164.123L248.128 163.733C250.662 158.86 253.585 155.351 256.119 152.233C257.874 150.283 259.238 148.334 260.798 146.19C263.137 139.758 267.62 135.275 274.247 133.325H274.442H274.637C275.222 133.13 276.781 131.961 277.951 131.181C279.51 130.207 281.069 128.842 283.213 127.868C292.375 122.605 300.756 119.096 309.918 115.393C313.231 114.028 316.74 112.664 320.248 111.104C326.291 108.376 331.944 105.257 337.791 101.943C345.588 97.6549 353.775 92.9768 363.521 89.2733H363.716C378.53 83.4257 395.098 80.6968 415.954 80.6968C429.989 80.6968 444.218 81.8663 457.862 83.0358C471.117 84.2053 483.592 85.18 495.482 85.18C526.669 85.3749 555.128 92.7819 580.273 107.011C596.451 116.172 611.07 127.868 626.274 143.656C629.783 147.165 631.927 151.648 633.486 155.156C634.071 156.326 634.85 157.885 635.24 158.665L635.435 158.86C638.164 161.784 641.673 165.292 644.207 169.776C648.105 176.988 648.3 184.59 644.596 191.217C644.596 191.607 644.791 191.802 644.791 191.997C645.376 194.725 646.156 198.234 645.961 202.522V203.107V203.692C643.037 223.574 631.342 243.066 611.07 261.778L610.68 262.168L610.29 262.558C609.511 263.143 608.731 263.727 607.951 264.312C606.392 265.482 605.028 266.651 603.468 267.821C582.417 284.194 558.636 302.906 517.118 306.805C497.626 308.559 476.575 310.313 453.184 311.288C446.752 311.483 441.099 311.678 435.447 311.678Z" fill="#1D5B96"/>
<path d="M574.814 100.968C592.746 111.299 606.976 124.359 618.671 136.834C622.179 140.342 623.934 149.114 628.027 152.622C632.9 157.69 638.358 163.733 634.459 169.19C630.561 174.258 634.849 180.886 634.654 186.733C631.926 205.446 620.23 222.989 603.467 238.582C602.687 239.167 602.103 239.752 601.323 240.337C578.907 257.879 556.881 277.761 515.753 281.66C493.142 283.804 472.87 285.363 450.454 286.338C408.351 288.287 351.824 283.024 321.417 265.481C321.027 265.286 320.637 265.091 320.247 264.702C318.883 263.922 317.518 262.947 316.154 261.973C310.891 258.464 306.603 254.566 304.264 249.888C303.094 247.354 299.976 245.404 296.662 243.455C295.882 243.065 295.102 242.481 294.323 242.091C293.543 241.701 292.763 241.116 291.984 240.726C289.06 239.167 286.526 237.413 284.967 235.269C284.382 233.904 283.992 232.735 283.602 231.565C283.212 230.396 282.822 229.226 282.238 228.251C281.068 225.912 279.119 223.573 276.195 221.819C275.221 221.234 274.051 220.649 272.687 220.26C271.517 219.48 271.322 216.166 270.153 215.387C263.525 211.293 265.475 207.59 263.915 201.352C263.525 200.183 262.161 199.403 260.796 198.623C259.822 198.039 258.847 197.649 257.873 197.064C257.093 196.674 256.313 196.284 255.534 195.895C255.144 195.7 254.754 195.505 254.559 195.31C251.44 193.361 249.296 191.022 251.05 188.683C255.729 181.276 253.584 176.208 255.923 167.826C257.093 164.317 253.195 157.885 254.754 154.182C258.262 146.969 263.135 143.656 268.009 135.274C268.788 133.52 268.788 131.181 272.297 130.011C276.975 128.647 280.483 124.943 284.577 122.799C296.467 115.977 307.772 111.884 321.222 105.841C336.621 98.6291 348.901 89.6628 365.274 83.0355C403.868 67.6367 452.014 79.7218 495.286 80.1116C528.033 80.3066 553.957 88.8831 574.814 100.968Z" fill="url(#paint0_linear_158_1200)"/>
<path d="M541.093 96.68C554.543 104.477 565.068 114.223 573.645 123.579C576.374 126.113 577.543 132.74 580.662 135.469C584.171 139.368 588.459 143.851 585.535 147.944C582.611 151.648 585.925 156.716 585.535 161.004C583.586 175.038 574.814 188.098 562.34 199.988C561.755 200.378 561.365 200.768 560.78 201.158C544.212 214.412 527.644 229.226 497.236 232.15C480.473 233.709 465.269 234.879 448.701 235.658C417.319 237.023 375.411 233.124 352.8 220.065C352.41 219.87 352.215 219.675 351.825 219.48C350.851 218.895 349.681 218.116 348.706 217.531C344.808 214.997 341.689 212.073 339.74 208.564C338.765 206.615 336.621 205.251 334.087 203.691C333.503 203.302 332.918 203.107 332.333 202.717C331.748 202.327 331.164 202.132 330.579 201.742C328.435 200.573 326.485 199.208 325.316 197.649C324.926 196.674 324.536 195.7 324.341 194.92C323.951 193.945 323.757 193.166 323.367 192.386C322.392 190.632 321.028 188.878 318.884 187.513C318.104 187.123 317.324 186.733 316.35 186.344C315.375 185.759 315.18 183.225 314.4 182.64C309.527 179.716 310.892 176.792 309.722 172.114C309.332 171.335 308.553 170.555 307.383 169.97C306.604 169.58 305.824 169.191 305.239 168.801C304.654 168.411 304.07 168.216 303.485 167.826C303.29 167.631 302.9 167.436 302.705 167.436C300.366 165.877 298.807 164.317 300.171 162.563C303.68 157.105 301.925 153.207 303.68 146.97C304.459 144.436 301.731 139.563 302.9 136.834C305.434 131.571 309.138 129.037 312.646 122.799C313.231 121.435 313.231 119.681 315.96 118.901C319.468 117.926 322.002 115.197 324.926 113.443C333.698 108.18 342.079 105.257 352.215 100.773C363.715 95.5105 372.877 88.6883 384.962 83.6203C413.615 72.12 449.48 81.2813 481.642 81.2813C506.202 81.0864 525.5 87.5187 541.093 96.68Z" fill="#8ED65E"/>
<path d="M585.341 147.75C588.265 143.657 584.171 139.174 580.468 135.275C577.544 132.546 576.18 125.919 573.451 123.385C564.679 114.029 554.154 104.283 540.899 96.4859C540.509 96.2909 540.314 96.096 539.924 95.9011L421.997 118.902L363.326 188.294H425.116L461.761 210.904H547.916C552.204 207.591 556.298 204.277 560.391 200.963C560.976 200.574 561.366 200.184 561.95 199.794C574.425 187.904 583.197 174.844 585.146 160.81C585.731 156.521 582.417 151.648 585.341 147.75Z" fill="url(#paint1_linear_158_1200)"/>
<path d="M358.842 95.5111L413.225 64.1289L408.352 55.3574L358.842 95.5111Z" fill="#2A6799"/>
<path d="M361.375 144.047V148.53L400.359 171.336V166.657L361.375 144.047Z" fill="#C5C5C5"/>
<path d="M396.852 168.606V173.285L400.36 171.335V166.657L396.852 168.606Z" fill="#898989"/>
<path d="M334.477 159.445V163.928L373.656 186.734V182.056L334.477 159.445Z" fill="#C5C5C5"/>
<path d="M334.477 159.445L373.656 182.056L396.851 168.607L400.36 166.657L361.376 144.047L334.477 159.445Z" fill="#1D5B96"/>
<path d="M373.656 182.056V186.734L396.852 173.285V168.606L373.656 182.056Z" fill="#898989"/>
<path d="M461.955 206.421V211.099L549.474 160.615V155.937L461.955 206.421Z" fill="#898989"/>
<path d="M396.852 168.606V173.285L461.955 211.099V206.421L396.852 168.606Z" fill="#C5C5C5"/>
<path d="M361.375 144.047L400.359 166.658L396.851 168.607L461.954 206.422L549.473 155.937L445.386 95.5117L361.375 144.047Z" fill="#1D5B96"/>
<path d="M462.15 201.743L541.483 155.742V103.698L462.345 149.699L462.15 201.743Z" fill="#B4B4B4"/>
<path d="M413.224 52.6284L363.52 92.7821V144.826L462.149 201.743L462.344 149.699L413.224 52.6284Z" fill="#F1F1F1"/>
<path d="M363.52 106.427L413.224 66.2729L462.344 163.343V149.699L413.224 52.6284L363.52 92.7821V144.826V106.427Z" fill="#D8E3F0"/>
<path d="M358.842 95.5113L408.352 55.3577V50.8745L358.842 91.6129V95.5113Z" fill="#1D5B96"/>
<path d="M462.345 163.539L541.483 117.537V103.698L462.345 149.699L462.15 201.743L462.345 163.539Z" fill="#D8E3F0"/>
<path d="M460.59 153.793L457.472 152.428L408.352 55.3577V50.8745L460.59 153.793Z" fill="#2A6799"/>
<path d="M460.59 153.792L548.11 102.918L495.871 0L408.352 50.8743L460.59 153.792Z" fill="url(#paint2_linear_158_1200)"/>
<path d="M507.761 49.3142L492.947 40.7377L494.312 38.3987L507.761 49.3142Z" fill="#38668C"/>
<path d="M507.762 49.3151L494.312 38.3995V37.23L507.762 48.3405V49.3151Z" fill="#1D5B96"/>
<path d="M479.498 64.1283L457.861 51.6534L471.311 24.9492L492.947 37.6191L479.498 64.1283Z" fill="#E30039"/>
<path d="M492.948 37.6194L506.592 48.535V62.9591L479.498 78.5527V64.1286L492.948 37.6194Z" fill="#F1F1F1"/>
<path d="M457.861 52.6287V51.6541L479.498 64.129V78.5531L467.218 71.3411L457.861 52.6287Z" fill="#B4B4B4"/>
<path d="M479.887 65.2982L455.912 51.4588L470.336 23.1953L494.311 37.2296L479.887 65.2982Z" fill="#1D5B96"/>
<path d="M479.887 65.2986L480.861 64.9087L494.311 38.3995V37.23L479.887 65.2986Z" fill="#4D8DC2"/>
<path d="M507.568 161.199L507.373 148.919L506.203 149.699V161.979V162.368L507.568 161.589V161.199Z" fill="#1D5B96"/>
<path d="M520.821 152.623V141.317L507.566 148.919V161.199L519.846 153.987C520.431 153.792 520.821 153.208 520.821 152.623Z" fill="#2A6799"/>
<path d="M520.626 128.842C520.626 128.257 520.236 128.062 519.651 128.257L507.371 135.469V147.749L520.626 140.147V128.842Z" fill="#2A6799"/>
<path d="M506.202 161.979V149.699L492.947 157.301V168.606C492.947 169.191 493.337 169.386 493.922 169.191L506.202 161.979Z" fill="#2A6799"/>
<path d="M492.168 168.996C492.168 170.165 492.948 170.555 493.922 169.971L519.847 154.962C520.821 154.377 521.601 153.012 521.601 151.843V128.063C521.601 126.893 520.821 126.503 519.847 127.088L493.922 142.097C492.948 142.682 492.168 144.046 492.168 145.216V168.996ZM493.922 143.266L506.202 136.054V148.334L492.948 155.936V144.631C492.948 144.241 493.337 143.461 493.922 143.266ZM520.626 139.953L507.372 147.555V135.275L519.652 128.063C520.237 127.868 520.626 128.063 520.626 128.647V139.953ZM492.948 157.301L506.202 149.699L507.372 149.114L520.626 141.512V152.818C520.626 153.402 520.237 154.182 519.652 154.377L507.372 161.589V161.979L506.202 162.758V162.369L493.922 169.581C493.337 169.776 492.948 169.581 492.948 168.996V157.301Z" fill="#1D5B96"/>
<path d="M493.922 143.267C493.337 143.462 492.947 144.241 492.947 144.826V156.131L506.202 148.53V136.25L493.922 143.267Z" fill="#2A6799"/>
<path d="M500.939 61.4007V56.3328L495.092 59.6464V65.1042L500.55 61.9855C500.745 61.9855 500.939 61.5956 500.939 61.4007Z" fill="#1D5B96"/>
<path d="M500.744 50.8748C500.744 50.6799 500.549 50.4849 500.354 50.6799L494.896 53.7986V59.2564L500.744 55.9427V50.8748Z" fill="#1D5B96"/>
<path d="M494.508 65.4939V60.0361L488.66 63.3498V68.4177C488.66 68.6127 488.855 68.8076 489.05 68.6127L494.508 65.4939Z" fill="#1D5B96"/>
<path d="M501.329 50.485C501.329 49.9002 500.939 49.7053 500.55 50.0952L489.049 56.7224C488.659 56.9174 488.27 57.697 488.27 58.0869V68.6126C488.27 69.1974 488.659 69.3923 489.049 69.0025L500.55 62.3751C500.939 62.1802 501.329 61.4005 501.329 61.0107V50.485ZM500.355 50.485C500.55 50.2901 500.744 50.485 500.744 50.6799V55.7478L494.897 59.0615V53.6037L500.355 50.485ZM488.464 57.892C488.464 57.6971 488.659 57.3072 488.854 57.1123L494.312 53.9936V59.4513L488.464 62.765V57.892ZM489.049 68.8075C488.854 69.0024 488.659 68.8075 488.659 68.6126V63.5447L494.507 60.231V65.6888L489.049 68.8075ZM500.55 61.9853L495.092 65.104V59.6463L500.939 56.3326V61.4005C500.939 61.5955 500.744 61.9853 500.55 61.9853Z" fill="#966552"/>
<path d="M488.855 57.3074C488.66 57.5023 488.465 57.6972 488.465 58.087V63.155L494.312 59.8413V54.3835L488.855 57.3074Z" fill="#1D5B96"/>
<path d="M391.199 160.81L372.486 150.089V116.173L391.199 126.893V160.81ZM374.241 149.309L389.25 158.081V143.657L374.241 134.885V149.309ZM374.241 133.521L389.25 142.292V127.868L374.241 119.097V133.521Z" fill="#1D5B96"/>
<path d="M374.24 119.097V133.521L389.444 142.098V127.868L374.24 119.097Z" fill="#2A6799"/>
<path d="M374.24 134.886V149.31L389.249 158.081L389.444 143.657L374.24 134.886Z" fill="#2A6799"/>
<path d="M370.146 166.462V177.378L373.655 179.327L373.46 168.412L370.146 166.462Z" fill="#E9E9E9"/>
<path d="M373.461 168.412L373.656 179.327L376.97 177.378V166.462L373.461 168.412Z" fill="#B0B0B0"/>
<path d="M370.146 166.462L373.46 168.412L376.969 166.462L373.655 164.513L370.146 166.462Z" fill="white"/>
<path d="M371.705 139.759V166.268L373.654 167.242V140.733L371.705 139.759Z" fill="#E9E9E9"/>
<path d="M373.654 140.733V167.242L375.409 166.268V139.759L373.654 140.733Z" fill="#B0B0B0"/>
<path d="M371.705 139.758L373.654 140.733L375.409 139.758L373.654 138.589L371.705 139.758Z" fill="white"/>
<path d="M338.18 148.138V159.054L341.493 161.198V150.282L338.18 148.138Z" fill="#E9E9E9"/>
<path d="M341.494 150.282V161.198L345.003 159.054V148.138L341.494 150.282Z" fill="#B0B0B0"/>
<path d="M338.18 148.138L341.493 150.282L345.002 148.138L341.493 146.188L338.18 148.138Z" fill="white"/>
<path d="M339.738 121.433V147.942L341.493 149.111V122.407L339.738 121.433Z" fill="#E9E9E9"/>
<path d="M341.492 122.407V149.111L343.441 147.942L343.246 121.433L341.492 122.407Z" fill="#B0B0B0"/>
<path d="M339.738 121.433L341.493 122.408L343.247 121.433L341.493 120.458L339.738 121.433Z" fill="white"/>
<path d="M397.046 115.588L363.519 96.2905L362.35 96.8753L396.071 116.172L397.046 115.588Z" fill="#E30039"/>
<path d="M369.757 143.851L336.23 124.554V126.308L369.757 145.606V143.851Z" fill="#C3D3F3"/>
<path d="M396.071 116.172L362.35 96.8752L336.23 124.554L369.757 143.851L396.071 116.172Z" fill="#E30039"/>
<path d="M396.072 116.172L369.758 143.851V145.605L397.047 129.817V115.587L396.072 116.172Z" fill="#838383"/>
<path d="M396.851 115.783L399.385 114.418L363.52 93.7568L361.765 94.7314L334.477 123.58L369.952 144.046L396.851 115.783Z" fill="url(#paint3_linear_158_1200)"/>
<path d="M399.386 114.419V115.588L396.852 117.148L369.953 145.216V144.047L396.852 115.783L399.386 114.419Z" fill="#2A6799"/>
<path d="M334.477 123.579V124.749L369.952 145.216V144.046L334.477 123.579Z" fill="#1D5B96"/>
<path d="M331.748 167.827V169.971L363.52 188.489L363.325 186.149L331.748 167.827Z" fill="#C5C5C5"/>
<path d="M363.326 186.15L363.521 188.489L369.953 184.59V182.446L363.326 186.15Z" fill="#898989"/>
<path d="M331.748 167.827L363.325 186.15L369.952 182.446L338.375 163.929L331.748 167.827Z" fill="#1D5B96"/>
<path d="M438.954 153.987L411.665 138.199L411.47 138.394L411.275 160.03L438.564 175.818L438.954 175.624V153.987Z" fill="#A1A1A1"/>
<path d="M438.759 153.987L411.47 138.394L411.275 160.03L438.564 175.819L438.759 153.987Z" fill="white"/>
<path d="M412.836 140.927V159.25L437.201 173.089V154.961L412.836 140.927Z" fill="#2A6799"/>
<path d="M412.836 140.927L413.811 141.317L413.616 158.665L437.201 172.115V173.089L412.836 159.25V140.927Z" fill="#898989"/>
<path d="M413.032 140.928H403.48V159.446H413.032V140.928Z" fill="#EBEBEB"/>
<path d="M412.25 141.512H408.352V149.894H412.25V141.512Z" fill="#2A6799"/>
<path d="M407.768 141.512H403.869V149.894H407.768V141.512Z" fill="#2A6799"/>
<path d="M412.25 150.479H408.352V158.86H412.25V150.479Z" fill="#2A6799"/>
<path d="M407.768 150.479H403.869V158.861H407.768V150.479Z" fill="#2A6799"/>
<path d="M412.836 140.928L412.641 140.733H403.09L403.48 140.928H412.836Z" fill="#A1A1A1"/>
<path d="M403.48 159.446L403.09 159.056V140.733L403.48 140.928V159.446Z" fill="#BFBFBF"/>
<path d="M443.048 179.132L437.006 173.089V154.767L443.048 160.614V179.132Z" fill="#EBEBEB"/>
<path d="M439.93 166.462L437.396 164.123V155.742L439.93 158.081V166.462Z" fill="#2A6799"/>
<path d="M442.854 169.191L440.32 166.852V158.47L442.854 160.81V169.191Z" fill="#2A6799"/>
<path d="M439.93 175.428L437.396 173.089V164.708L439.93 167.047V175.428Z" fill="#2A6799"/>
<path d="M442.854 178.157L440.32 175.818V167.437L442.854 169.776V178.157Z" fill="#2A6799"/>
<path d="M437.006 154.767L437.591 154.572L443.633 160.42L443.048 160.615L437.006 154.767Z" fill="#A1A1A1"/>
<path d="M443.049 179.132L443.634 178.937V160.42L443.049 160.615V179.132Z" fill="#BFBFBF"/>
<defs>
<linearGradient id="paint0_linear_158_1200" x1="443.167" y1="63.8071" x2="443.167" y2="171.324" gradientUnits="userSpaceOnUse">
<stop stop-color="#DEB3A2"/>
<stop offset="1" stop-color="#FFE3D9"/>
</linearGradient>
<linearGradient id="paint1_linear_158_1200" x1="363.427" y1="153.529" x2="586.382" y2="153.529" gradientUnits="userSpaceOnUse">
<stop stop-color="#73AD4C"/>
<stop offset="1" stop-color="#73AD4C" stop-opacity="0"/>
</linearGradient>
<linearGradient id="paint2_linear_158_1200" x1="408.348" y1="76.8602" x2="548.164" y2="76.8602" gradientUnits="userSpaceOnUse">
<stop stop-color="#5EADED"/>
<stop offset="1" stop-color="#4D8DC2"/>
</linearGradient>
<linearGradient id="paint3_linear_158_1200" x1="334.383" y1="118.89" x2="399.328" y2="118.89" gradientUnits="userSpaceOnUse">
<stop stop-color="#5EADED"/>
<stop offset="1" stop-color="#4D8DC2"/>
</linearGradient>
</defs>
</svg>
